# xmcd CD database file
#
# Track frame offsets:
#	150
#	6865
#	21875
#	40275
#	53235
#	67675
#	83447
#	99195
#	114602
#	118485
#	135872
#	154440
#	174425
#	182355
#	201582
#	218702
#
# Disc length: 3147 seconds
#
# Revision: 4
# Processed by: cddbd v1.5.2PL0 Copyright (c) Steve Scherf et al.
# Submitted via: CDex 1.70beta2
#
DISCID=cf0c4910
DTITLE=big punisher - yeeeah baby
DYEAR=2000
DGENRE=Rap
TTITLE0=the creation
TTITLE1=watch those
TTITLE2=off with his head
TTITLE3=it's so hard
TTITLE4=we don't care
TTITLE5=new york giants
TTITLE6=my dick
TTITLE7=leather face
TTITLE8=air pun
TTITLE9=100%
TTITLE10=wrong ones
TTITLE11=laughing at you
TTITLE12=nigga shit
TTITLE13=ms. martin
TTITLE14=my turn
TTITLE15=you was wrong
EXTD=Rap YEAR: 2000
EXTT0=
EXTT1=
EXTT2=
EXTT3=
EXTT4=
EXTT5=
EXTT6=
EXTT7=
EXTT8=
EXTT9=
EXTT10=
EXTT11=
EXTT12=
EXTT13=
EXTT14=
EXTT15=
PLAYORDER=
